<svg xmlns="http://www.w3.org/2000/svg" xmlns:xlink="http://www.w3.org/1999/xlink" width="500" zoomAndPan="magnify" viewBox="0 0 375 374.999991" height="500" preserveAspectRatio="xMidYMid meet" version="1.0"><defs><g/><clipPath id="b3918f66dc"><path d="M 75 54.464844 L 300 54.464844 L 300 279.464844 L 75 279.464844 Z M 75 54.464844 " clip-rule="nonzero"/></clipPath></defs><g clip-path="url(#b3918f66dc)"><path fill="#ffffff" d="M 187.523438 279.464844 C 157.488281 279.464844 129.199219 267.765625 107.949219 246.515625 C 86.699219 225.265625 75 197.023438 75 166.988281 C 75 136.949219 86.699219 108.664062 107.949219 87.414062 C 129.199219 66.164062 157.441406 54.464844 187.523438 54.464844 C 217.601562 54.464844 245.800781 66.164062 267.050781 87.414062 C 288.300781 108.664062 300 136.90625 300 166.988281 C 300 197.066406 288.300781 225.265625 267.050781 246.515625 C 245.800781 267.765625 217.558594 279.464844 187.523438 279.464844 Z M 187.523438 61.1875 C 159.28125 61.1875 132.695312 72.171875 112.703125 92.164062 C 92.707031 112.160156 81.722656 138.699219 81.722656 166.988281 C 81.722656 195.273438 92.707031 221.8125 112.703125 241.808594 C 132.695312 261.800781 159.234375 272.785156 187.523438 272.785156 C 215.808594 272.785156 242.347656 261.800781 262.34375 241.808594 C 282.335938 221.8125 293.320312 195.273438 293.320312 166.988281 C 293.320312 138.699219 282.335938 112.160156 262.34375 92.164062 C 242.304688 72.171875 215.765625 61.1875 187.523438 61.1875 Z M 187.523438 61.1875 " fill-opacity="1" fill-rule="nonzero"/></g><path fill="#ffffff" d="M 185.28125 265.433594 L 185.011719 265.433594 C 184.027344 265.386719 183.261719 264.582031 183.308594 263.640625 C 183.351562 262.699219 184.117188 261.9375 185.058594 261.9375 C 185.058594 261.9375 185.101562 261.9375 185.101562 261.9375 L 185.324219 261.9375 C 186.3125 261.980469 187.074219 262.789062 187.027344 263.730469 C 187.027344 264.671875 186.265625 265.433594 185.28125 265.433594 Z M 194.15625 265.207031 C 193.214844 265.207031 192.453125 264.492188 192.410156 263.550781 C 192.363281 262.5625 193.082031 261.757812 194.066406 261.667969 L 194.246094 261.667969 C 195.234375 261.578125 196.085938 262.339844 196.128906 263.28125 C 196.21875 264.265625 195.457031 265.117188 194.515625 265.164062 L 194.292969 265.164062 C 194.203125 265.207031 194.15625 265.207031 194.15625 265.207031 Z M 176.269531 264.804688 C 176.226562 264.804688 176.136719 264.804688 176.046875 264.804688 L 175.820312 264.761719 C 174.835938 264.625 174.164062 263.773438 174.296875 262.789062 C 174.433594 261.800781 175.285156 261.128906 176.269531 261.261719 L 176.496094 261.308594 C 177.480469 261.398438 178.152344 262.292969 178.0625 263.28125 C 177.882812 264.132812 177.121094 264.804688 176.269531 264.804688 Z M 203.125 264.175781 C 202.269531 264.175781 201.507812 263.550781 201.375 262.699219 C 201.195312 261.757812 201.867188 260.816406 202.855469 260.679688 L 203.078125 260.636719 C 204.019531 260.5 204.960938 261.128906 205.09375 262.113281 C 205.230469 263.101562 204.601562 263.996094 203.617188 264.132812 L 203.390625 264.175781 C 203.347656 264.175781 203.257812 264.175781 203.125 264.175781 Z M 167.304688 263.324219 C 167.167969 263.324219 167.082031 263.324219 166.945312 263.28125 L 166.722656 263.234375 C 165.78125 263.011719 165.152344 262.070312 165.375 261.128906 C 165.601562 260.1875 166.542969 259.558594 167.484375 259.785156 L 167.707031 259.828125 C 168.648438 260.054688 169.277344 260.949219 169.050781 261.9375 C 168.875 262.789062 168.109375 263.324219 167.304688 263.324219 Z M 212 262.339844 C 211.191406 262.339844 210.476562 261.800781 210.296875 260.996094 C 210.070312 260.054688 210.609375 259.066406 211.597656 258.84375 L 211.773438 258.796875 C 212.714844 258.527344 213.703125 259.113281 213.925781 260.054688 C 214.195312 260.996094 213.613281 261.980469 212.671875 262.203125 L 212.449219 262.25 C 212.3125 262.292969 212.132812 262.339844 212 262.339844 Z M 158.5625 261.039062 C 158.382812 261.039062 158.203125 260.996094 158.023438 260.949219 L 157.84375 260.90625 C 156.902344 260.589844 156.367188 259.605469 156.679688 258.664062 C 156.992188 257.722656 157.933594 257.230469 158.875 257.496094 L 159.101562 257.542969 C 160.042969 257.8125 160.535156 258.84375 160.265625 259.738281 C 159.996094 260.546875 159.28125 261.039062 158.5625 261.039062 Z M 220.652344 259.605469 C 219.933594 259.605469 219.261719 259.15625 218.992188 258.4375 C 218.679688 257.542969 219.128906 256.511719 220.070312 256.199219 L 220.246094 256.109375 C 221.144531 255.792969 222.175781 256.242188 222.535156 257.140625 C 222.847656 258.035156 222.398438 259.066406 221.503906 259.425781 L 221.277344 259.515625 C 221.054688 259.605469 220.875 259.605469 220.652344 259.605469 Z M 150.042969 257.945312 C 149.820312 257.945312 149.597656 257.902344 149.371094 257.8125 L 149.148438 257.722656 C 148.25 257.320312 147.847656 256.289062 148.207031 255.390625 C 148.609375 254.492188 149.640625 254.089844 150.539062 254.449219 L 150.71875 254.539062 C 151.613281 254.898438 152.0625 255.929688 151.660156 256.871094 C 151.390625 257.496094 150.71875 257.945312 150.042969 257.945312 Z M 229.035156 256.109375 C 228.363281 256.109375 227.734375 255.75 227.464844 255.121094 C 227.0625 254.226562 227.421875 253.195312 228.273438 252.746094 L 228.496094 252.65625 C 229.394531 252.253906 230.425781 252.609375 230.871094 253.507812 C 231.277344 254.40625 230.917969 255.4375 230.019531 255.839844 L 229.839844 255.929688 C 229.527344 256.0625 229.257812 256.109375 229.035156 256.109375 Z M 141.839844 254 C 141.570312 254 141.257812 253.910156 140.988281 253.777344 L 140.808594 253.6875 C 139.957031 253.238281 139.644531 252.164062 140.09375 251.3125 C 140.539062 250.460938 141.617188 250.144531 142.46875 250.59375 L 142.648438 250.683594 C 143.5 251.132812 143.8125 252.207031 143.363281 253.058594 C 143.097656 253.6875 142.46875 254 141.839844 254 Z M 237.015625 251.847656 C 236.429688 251.847656 235.847656 251.535156 235.488281 250.996094 C 234.996094 250.144531 235.265625 249.070312 236.074219 248.578125 L 236.253906 248.441406 C 237.105469 247.949219 238.179688 248.21875 238.671875 249.070312 C 239.167969 249.921875 238.898438 250.996094 238.046875 251.492188 L 237.867188 251.582031 C 237.640625 251.757812 237.328125 251.847656 237.015625 251.847656 Z M 134.039062 249.339844 C 133.726562 249.339844 133.367188 249.25 133.054688 249.023438 L 132.875 248.890625 C 132.066406 248.351562 131.84375 247.277344 132.382812 246.425781 C 132.917969 245.617188 133.996094 245.394531 134.847656 245.933594 L 135.027344 246.066406 C 135.832031 246.605469 136.058594 247.679688 135.519531 248.53125 C 135.207031 249.070312 134.625 249.339844 134.039062 249.339844 Z M 244.589844 246.828125 C 244.050781 246.828125 243.515625 246.558594 243.15625 246.109375 C 242.574219 245.347656 242.753906 244.226562 243.515625 243.644531 L 243.695312 243.511719 C 244.5 242.929688 245.578125 243.109375 246.160156 243.871094 C 246.742188 244.675781 246.5625 245.753906 245.800781 246.335938 L 245.621094 246.46875 C 245.308594 246.738281 244.949219 246.828125 244.589844 246.828125 Z M 126.734375 244.003906 C 126.328125 244.003906 125.925781 243.871094 125.613281 243.601562 L 125.433594 243.464844 C 124.671875 242.839844 124.535156 241.761719 125.164062 241 C 125.792969 240.238281 126.867188 240.105469 127.628906 240.730469 L 127.808594 240.867188 C 128.570312 241.492188 128.660156 242.613281 128.078125 243.332031 C 127.765625 243.78125 127.269531 244.003906 126.734375 244.003906 Z M 251.628906 241.136719 C 251.136719 241.136719 250.640625 240.957031 250.328125 240.550781 C 249.699219 239.835938 249.746094 238.714844 250.464844 238.085938 L 250.640625 237.953125 C 251.359375 237.28125 252.480469 237.371094 253.152344 238.085938 C 253.824219 238.804688 253.734375 239.925781 253.019531 240.597656 L 252.882812 240.730469 C 252.480469 241 252.03125 241.136719 251.628906 241.136719 Z M 119.964844 237.953125 C 119.515625 237.953125 119.066406 237.773438 118.753906 237.457031 L 118.574219 237.28125 C 117.855469 236.605469 117.855469 235.488281 118.574219 234.769531 C 119.246094 234.050781 120.367188 234.050781 121.085938 234.769531 L 121.21875 234.902344 C 121.9375 235.574219 121.9375 236.695312 121.265625 237.414062 C 120.90625 237.816406 120.414062 237.953125 119.964844 237.953125 Z M 258.128906 234.8125 C 257.679688 234.8125 257.277344 234.679688 256.917969 234.320312 C 256.203125 233.648438 256.15625 232.527344 256.828125 231.808594 L 256.964844 231.632812 C 257.636719 230.914062 258.757812 230.867188 259.472656 231.542969 C 260.191406 232.214844 260.234375 233.335938 259.5625 234.050781 L 259.429688 234.1875 C 259.070312 234.632812 258.578125 234.8125 258.128906 234.8125 Z M 113.777344 231.363281 C 113.285156 231.363281 112.792969 231.136719 112.433594 230.734375 L 112.296875 230.554688 C 111.671875 229.792969 111.761719 228.71875 112.523438 228.042969 C 113.285156 227.417969 114.359375 227.507812 115.03125 228.269531 L 115.167969 228.449219 C 115.796875 229.210938 115.707031 230.285156 114.941406 230.957031 C 114.585938 231.226562 114.179688 231.363281 113.777344 231.363281 Z M 264 227.910156 C 263.644531 227.910156 263.238281 227.777344 262.925781 227.550781 C 262.164062 226.96875 261.984375 225.847656 262.613281 225.085938 L 262.746094 224.90625 C 263.328125 224.144531 264.449219 224.011719 265.210938 224.59375 C 265.972656 225.175781 266.109375 226.296875 265.527344 227.058594 L 265.390625 227.238281 C 265.078125 227.6875 264.539062 227.910156 264 227.910156 Z M 108.261719 224.1875 C 107.726562 224.1875 107.144531 223.921875 106.828125 223.425781 L 106.695312 223.246094 C 106.15625 222.441406 106.335938 221.363281 107.144531 220.78125 C 107.949219 220.246094 109.027344 220.421875 109.609375 221.230469 L 109.742188 221.410156 C 110.28125 222.214844 110.101562 223.292969 109.292969 223.875 C 108.9375 224.054688 108.578125 224.1875 108.261719 224.1875 Z M 269.203125 220.511719 C 268.886719 220.511719 268.574219 220.421875 268.261719 220.246094 C 267.453125 219.707031 267.183594 218.628906 267.722656 217.824219 L 267.855469 217.644531 C 268.394531 216.835938 269.472656 216.566406 270.277344 217.105469 C 271.085938 217.644531 271.355469 218.71875 270.816406 219.527344 L 270.679688 219.707031 C 270.367188 220.199219 269.785156 220.511719 269.203125 220.511719 Z M 103.378906 216.523438 C 102.75 216.523438 102.167969 216.210938 101.851562 215.625 L 101.761719 215.449219 C 101.269531 214.597656 101.582031 213.519531 102.4375 213.027344 C 103.289062 212.535156 104.363281 212.847656 104.855469 213.699219 L 104.945312 213.878906 C 105.4375 214.730469 105.125 215.804688 104.273438 216.300781 C 104.003906 216.433594 103.691406 216.523438 103.378906 216.523438 Z M 273.730469 212.625 C 273.460938 212.625 273.191406 212.578125 272.921875 212.445312 C 272.070312 211.996094 271.710938 210.917969 272.160156 210.066406 L 272.25 209.886719 C 272.699219 209.035156 273.773438 208.679688 274.625 209.125 C 275.476562 209.574219 275.835938 210.652344 275.386719 211.503906 L 275.300781 211.683594 C 274.984375 212.265625 274.359375 212.625 273.730469 212.625 Z M 99.296875 208.453125 C 98.625 208.453125 97.996094 208.050781 97.683594 207.421875 L 97.59375 207.242188 C 97.191406 206.347656 97.59375 205.316406 98.492188 204.914062 C 99.386719 204.507812 100.417969 204.914062 100.820312 205.808594 L 100.910156 205.988281 C 101.316406 206.886719 100.910156 207.917969 100.015625 208.320312 C 99.789062 208.410156 99.523438 208.453125 99.296875 208.453125 Z M 277.449219 204.375 C 277.226562 204.375 277.003906 204.328125 276.824219 204.238281 C 275.925781 203.882812 275.476562 202.851562 275.835938 201.953125 L 275.925781 201.730469 C 276.285156 200.832031 277.316406 200.386719 278.210938 200.742188 C 279.109375 201.101562 279.558594 202.132812 279.199219 203.03125 L 279.109375 203.253906 C 278.796875 203.925781 278.167969 204.375 277.449219 204.375 Z M 95.933594 200.027344 C 95.21875 200.027344 94.5 199.578125 94.277344 198.816406 L 94.1875 198.589844 C 93.875 197.648438 94.367188 196.664062 95.308594 196.351562 C 96.25 196.035156 97.234375 196.53125 97.550781 197.472656 L 97.640625 197.695312 C 97.953125 198.636719 97.460938 199.621094 96.5625 199.9375 C 96.339844 199.980469 96.160156 200.027344 95.933594 200.027344 Z M 280.410156 195.8125 C 280.230469 195.8125 280.09375 195.765625 279.917969 195.722656 C 278.976562 195.453125 278.4375 194.46875 278.707031 193.527344 L 278.75 193.300781 C 279.019531 192.359375 280.007812 191.824219 280.949219 192.089844 C 281.890625 192.359375 282.425781 193.347656 282.15625 194.289062 L 282.113281 194.511719 C 281.84375 195.273438 281.171875 195.8125 280.410156 195.8125 Z M 93.425781 191.285156 C 92.617188 191.285156 91.902344 190.746094 91.722656 189.941406 L 91.675781 189.714844 C 91.453125 188.773438 92.035156 187.832031 92.976562 187.609375 C 93.917969 187.382812 94.859375 187.96875 95.082031 188.910156 L 95.128906 189.132812 C 95.351562 190.074219 94.769531 191.015625 93.828125 191.238281 C 93.695312 191.285156 93.558594 191.285156 93.425781 191.285156 Z M 282.515625 186.980469 C 282.425781 186.980469 282.292969 186.980469 282.15625 186.9375 C 281.214844 186.757812 280.589844 185.816406 280.769531 184.875 L 280.8125 184.648438 C 280.992188 183.707031 281.933594 183.082031 282.875 183.261719 C 283.816406 183.4375 284.445312 184.378906 284.265625 185.320312 L 284.21875 185.546875 C 284.085938 186.398438 283.324219 186.980469 282.515625 186.980469 Z M 91.722656 182.40625 C 90.871094 182.40625 90.109375 181.78125 89.972656 180.882812 L 89.929688 180.660156 C 89.792969 179.671875 90.464844 178.820312 91.453125 178.6875 C 92.4375 178.554688 93.289062 179.226562 93.425781 180.210938 L 93.46875 180.4375 C 93.605469 181.421875 92.933594 182.273438 91.992188 182.453125 C 91.902344 182.40625 91.8125 182.40625 91.722656 182.40625 Z M 283.773438 178.015625 C 283.726562 178.015625 283.636719 178.015625 283.59375 178.015625 C 282.605469 177.925781 281.890625 177.074219 282.023438 176.085938 L 282.023438 175.863281 C 282.113281 174.875 282.964844 174.160156 283.949219 174.292969 C 284.9375 174.382812 285.65625 175.234375 285.519531 176.222656 L 285.519531 176.445312 C 285.476562 177.34375 284.667969 178.015625 283.773438 178.015625 Z M 90.914062 173.398438 C 89.972656 173.398438 89.210938 172.679688 89.167969 171.695312 L 89.167969 171.46875 C 89.121094 170.484375 89.882812 169.675781 90.824219 169.632812 C 91.8125 169.585938 92.617188 170.347656 92.664062 171.289062 L 92.664062 171.515625 C 92.707031 172.5 91.945312 173.308594 91.003906 173.351562 C 90.960938 173.398438 90.914062 173.398438 90.914062 173.398438 Z M 284.21875 168.734375 C 283.234375 168.734375 282.382812 168.152344 282.382812 167.164062 L 282.382812 166.988281 C 282.382812 166.988281 282.382812 166.941406 282.382812 166.941406 L 282.382812 166.71875 C 282.382812 165.730469 283.1875 164.96875 284.175781 164.96875 C 285.160156 164.96875 285.96875 165.777344 285.96875 166.71875 L 285.96875 166.898438 C 285.96875 166.898438 285.96875 166.941406 285.96875 166.941406 L 285.96875 167.164062 C 285.96875 168.152344 285.207031 168.734375 284.21875 168.734375 Z M 90.871094 164.296875 C 90.824219 164.296875 90.824219 164.296875 90.78125 164.296875 C 89.792969 164.253906 89.03125 163.445312 89.078125 162.457031 L 89.078125 162.234375 C 89.121094 161.25 89.972656 160.53125 90.914062 160.574219 C 91.902344 160.621094 92.664062 161.429688 92.574219 162.414062 L 92.574219 162.636719 C 92.617188 163.578125 91.8125 164.296875 90.871094 164.296875 Z M 283.816406 159.679688 C 282.917969 159.679688 282.15625 159.007812 282.066406 158.066406 L 282.066406 157.839844 C 281.976562 156.855469 282.695312 156.003906 283.636719 155.914062 C 284.625 155.824219 285.476562 156.542969 285.566406 157.484375 L 285.566406 157.707031 C 285.65625 158.691406 284.9375 159.546875 283.949219 159.632812 C 283.90625 159.679688 283.859375 159.679688 283.816406 159.679688 Z M 91.722656 155.285156 C 91.632812 155.285156 91.542969 155.285156 91.496094 155.285156 C 90.511719 155.152344 89.839844 154.253906 89.972656 153.3125 L 90.019531 153.089844 C 90.152344 152.101562 91.050781 151.429688 92.035156 151.609375 C 93.023438 151.746094 93.695312 152.640625 93.515625 153.628906 L 93.46875 153.851562 C 93.335938 154.660156 92.574219 155.285156 91.722656 155.285156 Z M 282.5625 150.714844 C 281.710938 150.714844 280.992188 150.128906 280.8125 149.277344 L 280.769531 149.054688 C 280.589844 148.113281 281.214844 147.171875 282.15625 146.992188 C 283.097656 146.8125 284.039062 147.441406 284.21875 148.382812 L 284.265625 148.605469 C 284.445312 149.546875 283.816406 150.488281 282.875 150.667969 C 282.742188 150.714844 282.652344 150.714844 282.5625 150.714844 Z M 93.378906 146.363281 C 93.246094 146.363281 93.109375 146.363281 92.976562 146.320312 C 92.035156 146.097656 91.453125 145.15625 91.675781 144.214844 L 91.722656 143.988281 C 91.945312 143.046875 92.886719 142.464844 93.828125 142.6875 C 94.769531 142.914062 95.351562 143.855469 95.128906 144.796875 L 95.082031 145.019531 C 94.90625 145.828125 94.1875 146.363281 93.378906 146.363281 Z M 280.453125 141.882812 C 279.691406 141.882812 278.976562 141.390625 278.75 140.582031 L 278.707031 140.359375 C 278.4375 139.417969 278.976562 138.429688 279.917969 138.160156 C 280.859375 137.890625 281.84375 138.429688 282.113281 139.371094 L 282.15625 139.597656 C 282.425781 140.539062 281.890625 141.523438 280.949219 141.792969 C 280.769531 141.882812 280.589844 141.882812 280.453125 141.882812 Z M 95.890625 137.667969 C 95.710938 137.667969 95.53125 137.625 95.308594 137.578125 C 94.367188 137.265625 93.875 136.277344 94.1875 135.335938 L 94.277344 135.15625 C 94.589844 134.214844 95.621094 133.722656 96.519531 134.035156 C 97.460938 134.351562 97.953125 135.335938 97.640625 136.277344 L 97.550781 136.503906 C 97.324219 137.21875 96.609375 137.667969 95.890625 137.667969 Z M 277.539062 133.320312 C 276.824219 133.320312 276.152344 132.871094 275.882812 132.199219 L 275.792969 132.019531 C 275.433594 131.121094 275.882812 130.09375 276.777344 129.734375 C 277.675781 129.375 278.707031 129.824219 279.066406 130.71875 L 279.152344 130.945312 C 279.511719 131.839844 279.066406 132.871094 278.167969 133.230469 C 277.945312 133.273438 277.765625 133.320312 277.539062 133.320312 Z M 99.207031 129.238281 C 98.984375 129.238281 98.714844 129.195312 98.492188 129.105469 C 97.59375 128.703125 97.191406 127.671875 97.59375 126.773438 L 97.683594 126.550781 C 98.085938 125.652344 99.117188 125.25 100.015625 125.652344 C 100.910156 126.058594 101.316406 127.089844 100.910156 127.984375 L 100.820312 128.164062 C 100.507812 128.835938 99.878906 129.238281 99.207031 129.238281 Z M 273.820312 125.027344 C 273.191406 125.027344 272.5625 124.667969 272.25 124.039062 L 272.160156 123.859375 C 271.710938 123.007812 272.070312 121.933594 272.921875 121.484375 C 273.773438 121.035156 274.851562 121.394531 275.300781 122.246094 L 275.386719 122.425781 C 275.835938 123.277344 275.476562 124.355469 274.625 124.800781 C 274.359375 124.980469 274.089844 125.027344 273.820312 125.027344 Z M 103.289062 121.125 C 102.972656 121.125 102.703125 121.035156 102.4375 120.902344 C 101.582031 120.410156 101.269531 119.332031 101.761719 118.480469 L 101.851562 118.300781 C 102.347656 117.449219 103.421875 117.179688 104.273438 117.628906 C 105.125 118.121094 105.394531 119.199219 104.945312 120.050781 L 104.855469 120.230469 C 104.496094 120.8125 103.914062 121.125 103.289062 121.125 Z M 269.335938 117.136719 C 268.753906 117.136719 268.171875 116.824219 267.855469 116.328125 L 267.765625 116.148438 C 267.230469 115.34375 267.5 114.222656 268.304688 113.730469 C 269.113281 113.191406 270.234375 113.460938 270.726562 114.265625 L 270.859375 114.445312 C 271.398438 115.253906 271.128906 116.375 270.324219 116.867188 C 269.964844 117.089844 269.648438 117.136719 269.335938 117.136719 Z M 108.128906 113.460938 C 107.769531 113.460938 107.410156 113.371094 107.144531 113.144531 C 106.335938 112.609375 106.15625 111.488281 106.695312 110.679688 L 106.828125 110.5 C 107.367188 109.695312 108.488281 109.515625 109.292969 110.054688 C 110.101562 110.636719 110.28125 111.710938 109.742188 112.519531 L 109.609375 112.699219 C 109.25 113.191406 108.667969 113.460938 108.128906 113.460938 Z M 264.136719 109.738281 C 263.597656 109.738281 263.058594 109.515625 262.746094 109.066406 L 262.613281 108.886719 C 262.027344 108.125 262.164062 107.003906 262.925781 106.421875 C 263.6875 105.839844 264.808594 105.972656 265.390625 106.734375 L 265.527344 106.914062 C 266.109375 107.675781 265.972656 108.796875 265.210938 109.378906 C 264.898438 109.605469 264.539062 109.738281 264.136719 109.738281 Z M 113.644531 106.289062 C 113.238281 106.289062 112.835938 106.152344 112.523438 105.882812 C 111.761719 105.257812 111.671875 104.136719 112.296875 103.417969 L 112.433594 103.238281 C 113.058594 102.476562 114.179688 102.433594 114.941406 103.058594 C 115.707031 103.6875 115.75 104.808594 115.121094 105.570312 L 114.988281 105.75 C 114.675781 106.0625 114.136719 106.289062 113.644531 106.289062 Z M 258.261719 102.835938 C 257.769531 102.835938 257.320312 102.65625 256.964844 102.253906 L 256.828125 102.117188 C 256.15625 101.402344 256.203125 100.28125 256.917969 99.609375 C 257.636719 98.933594 258.757812 98.980469 259.429688 99.699219 L 259.609375 99.875 C 260.28125 100.59375 260.234375 101.714844 259.519531 102.386719 C 259.160156 102.65625 258.710938 102.835938 258.261719 102.835938 Z M 119.828125 99.652344 C 119.382812 99.652344 118.933594 99.472656 118.574219 99.113281 C 117.902344 98.398438 117.902344 97.320312 118.621094 96.605469 L 118.796875 96.425781 C 119.515625 95.753906 120.636719 95.753906 121.308594 96.46875 C 121.980469 97.1875 121.980469 98.308594 121.265625 98.980469 L 121.128906 99.113281 C 120.726562 99.472656 120.277344 99.652344 119.828125 99.652344 Z M 251.808594 96.46875 C 251.40625 96.46875 250.957031 96.335938 250.640625 96.019531 L 250.507812 95.886719 C 249.789062 95.257812 249.699219 94.136719 250.375 93.375 C 251 92.660156 252.121094 92.570312 252.882812 93.242188 L 253.0625 93.375 C 253.78125 94.050781 253.871094 95.125 253.199219 95.886719 C 252.75 96.289062 252.300781 96.46875 251.808594 96.46875 Z M 126.597656 93.601562 C 126.105469 93.601562 125.566406 93.375 125.210938 92.929688 C 124.582031 92.164062 124.714844 91.046875 125.476562 90.460938 L 125.65625 90.328125 C 126.417969 89.699219 127.539062 89.835938 128.125 90.597656 C 128.75 91.359375 128.617188 92.480469 127.855469 93.0625 L 127.675781 93.195312 C 127.359375 93.464844 127.003906 93.601562 126.597656 93.601562 Z M 244.769531 90.777344 C 244.410156 90.777344 244.050781 90.6875 243.738281 90.417969 L 243.558594 90.28125 C 242.753906 89.699219 242.617188 88.625 243.15625 87.816406 C 243.738281 87.011719 244.859375 86.875 245.621094 87.414062 L 245.800781 87.546875 C 246.609375 88.132812 246.742188 89.253906 246.160156 90.015625 C 245.847656 90.507812 245.308594 90.777344 244.769531 90.777344 Z M 133.90625 88.222656 C 133.324219 88.222656 132.785156 87.953125 132.425781 87.414062 C 131.890625 86.605469 132.113281 85.488281 132.917969 84.949219 L 133.097656 84.8125 C 133.90625 84.277344 135.027344 84.5 135.566406 85.308594 C 136.101562 86.113281 135.878906 87.234375 135.070312 87.773438 L 134.890625 87.90625 C 134.578125 88.132812 134.21875 88.222656 133.90625 88.222656 Z M 237.195312 85.753906 C 236.878906 85.753906 236.566406 85.664062 236.296875 85.488281 L 236.117188 85.351562 C 235.265625 84.859375 234.996094 83.78125 235.488281 82.929688 C 235.984375 82.078125 237.058594 81.808594 237.910156 82.304688 L 238.089844 82.4375 C 238.941406 82.929688 239.210938 84.007812 238.71875 84.859375 C 238.402344 85.441406 237.820312 85.753906 237.195312 85.753906 Z M 141.660156 83.558594 C 141.035156 83.558594 140.40625 83.199219 140.09375 82.617188 C 139.644531 81.765625 139.957031 80.691406 140.808594 80.242188 L 140.988281 80.152344 C 141.839844 79.703125 142.917969 80.015625 143.363281 80.867188 C 143.8125 81.722656 143.5 82.796875 142.648438 83.246094 L 142.46875 83.335938 C 142.246094 83.46875 141.929688 83.558594 141.660156 83.558594 Z M 229.214844 81.453125 C 228.945312 81.453125 228.722656 81.40625 228.453125 81.273438 L 228.273438 81.183594 C 227.375 80.777344 227.015625 79.703125 227.421875 78.808594 C 227.824219 77.910156 228.898438 77.550781 229.796875 77.953125 L 229.976562 78.042969 C 230.871094 78.449219 231.230469 79.523438 230.828125 80.421875 C 230.515625 81.09375 229.886719 81.453125 229.214844 81.453125 Z M 149.820312 79.613281 C 149.148438 79.613281 148.476562 79.210938 148.207031 78.539062 C 147.847656 77.640625 148.25 76.609375 149.148438 76.207031 L 149.371094 76.117188 C 150.269531 75.757812 151.300781 76.160156 151.703125 77.058594 C 152.0625 77.953125 151.660156 78.984375 150.761719 79.390625 L 150.582031 79.480469 C 150.269531 79.570312 150.042969 79.613281 149.820312 79.613281 Z M 220.875 77.910156 C 220.695312 77.910156 220.472656 77.867188 220.292969 77.820312 L 220.070312 77.730469 C 219.171875 77.417969 218.679688 76.386719 219.039062 75.445312 C 219.351562 74.546875 220.382812 74.054688 221.324219 74.414062 L 221.546875 74.503906 C 222.445312 74.816406 222.9375 75.847656 222.625 76.789062 C 222.265625 77.460938 221.59375 77.910156 220.875 77.910156 Z M 158.339844 76.476562 C 157.578125 76.476562 156.902344 75.984375 156.636719 75.21875 C 156.320312 74.277344 156.859375 73.292969 157.800781 73.023438 L 158.023438 72.980469 C 158.964844 72.664062 159.953125 73.203125 160.222656 74.144531 C 160.535156 75.085938 159.996094 76.070312 159.054688 76.339844 L 158.832031 76.386719 C 158.695312 76.476562 158.519531 76.476562 158.339844 76.476562 Z M 212.222656 75.21875 C 212.089844 75.21875 211.910156 75.21875 211.773438 75.175781 L 211.550781 75.128906 C 210.609375 74.90625 210.027344 73.921875 210.296875 72.980469 C 210.519531 72.039062 211.507812 71.453125 212.449219 71.722656 L 212.671875 71.769531 C 213.613281 72.039062 214.195312 72.980469 213.925781 73.921875 C 213.703125 74.683594 212.984375 75.21875 212.222656 75.21875 Z M 167.082031 74.1875 C 166.273438 74.1875 165.554688 73.605469 165.375 72.800781 C 165.152344 71.859375 165.78125 70.917969 166.722656 70.691406 L 166.902344 70.648438 C 167.84375 70.421875 168.828125 71.050781 169.007812 71.992188 C 169.230469 72.933594 168.605469 73.875 167.664062 74.101562 L 167.4375 74.144531 C 167.347656 74.144531 167.214844 74.1875 167.082031 74.1875 Z M 203.347656 73.292969 C 203.257812 73.292969 203.167969 73.292969 203.078125 73.246094 L 202.855469 73.203125 C 201.914062 73.070312 201.242188 72.128906 201.375 71.1875 C 201.554688 70.246094 202.449219 69.570312 203.390625 69.707031 L 203.617188 69.75 C 204.558594 69.929688 205.230469 70.828125 205.050781 71.769531 C 204.960938 72.710938 204.199219 73.292969 203.347656 73.292969 Z M 176.046875 72.710938 C 175.148438 72.710938 174.386719 72.039062 174.296875 71.140625 C 174.164062 70.15625 174.878906 69.304688 175.867188 69.167969 L 176.089844 69.125 C 177.078125 68.988281 177.929688 69.707031 178.0625 70.691406 C 178.199219 71.679688 177.480469 72.53125 176.496094 72.664062 L 176.269531 72.710938 C 176.179688 72.664062 176.089844 72.710938 176.046875 72.710938 Z M 194.335938 72.261719 C 194.292969 72.261719 194.246094 72.261719 194.203125 72.261719 L 193.976562 72.261719 C 192.992188 72.21875 192.273438 71.363281 192.320312 70.378906 C 192.363281 69.390625 193.214844 68.675781 194.203125 68.71875 L 194.425781 68.71875 C 195.414062 68.765625 196.128906 69.617188 196.085938 70.601562 C 196.039062 71.542969 195.277344 72.261719 194.335938 72.261719 Z M 185.058594 72.082031 C 184.117188 72.082031 183.308594 71.320312 183.308594 70.332031 C 183.261719 69.347656 184.070312 68.539062 185.011719 68.496094 L 185.234375 68.496094 C 186.175781 68.449219 187.027344 69.257812 187.027344 70.199219 C 187.074219 71.1875 186.265625 71.992188 185.324219 72.039062 L 185.058594 72.082031 C 185.101562 72.082031 185.101562 72.082031 185.058594 72.082031 Z M 185.058594 72.082031 " fill-opacity="1" fill-rule="nonzero"/><g fill="#ffffff" fill-opacity="1"><g transform="translate(139.875099, 211.152368)"><g><path d="M 59.90625 0 L 38.296875 0 L 38.296875 -42.921875 L 0.53125 -109.328125 L 23.703125 -109.328125 L 48.6875 -66.328125 L 50.546875 -66.328125 L 75 -109.328125 L 97.671875 -109.328125 L 59.90625 -42.921875 Z M 59.90625 0 "/></g></g></g><g fill="#ffffff" fill-opacity="1"><g transform="translate(153.992387, 189.405412)"><g><path d="M 29.34375 21.890625 L 11.0625 21.890625 L 11.0625 53.78125 L 0 53.78125 L 0 8.6875 L 66.8125 8.6875 L 66.8125 53.0625 L 55.75 53.0625 L 55.75 21.890625 L 40.125 21.890625 L 40.125 49.125 L 29.34375 49.125 Z M 29.34375 21.890625 "/></g></g></g></svg>